<svg version="1.1" xmlns="http://www.w3.org/2000/svg" xmlns:xlink="http://www.w3.org/1999/xlink" width="32px" height="32px" viewBox="0,0,256,256"><g fill="#ffffff" fill-rule="nonzero" stroke="none" stroke-width="1" stroke-linecap="butt" stroke-linejoin="miter" stroke-miterlimit="10" stroke-dasharray="" stroke-dashoffset="0" font-family="none" font-weight="none" font-size="none" text-anchor="none" style="mix-blend-mode: normal"><g transform="translate(1.16589,-0.03284) scale(8,8)"><g id="Layer_35"><path d="M18,29c-0.20391,-0.00048 -0.4028,-0.06329 -0.57,-0.18l-10,-7c-0.26886,-0.18652 -0.42946,-0.49278 -0.43,-0.82v-10c0.00054,-0.32722 0.16114,-0.63348 0.43,-0.82l10,-7c0.29673,-0.20079 0.67819,-0.22749 1,-0.07c0.34406,0.16383 0.5651,0.50896 0.57,0.89v24c0.00078,0.37436 -0.2076,0.7178 -0.54,0.89c-0.14233,0.07292 -0.30008,0.11064 -0.46,0.11zM9,20.48l8,5.6v-20.16l-8,5.6z"></path><path d="M8,22h-4c-1.65685,0 -3,-1.34315 -3,-3v-6c0,-1.65685 1.34315,-3 3,-3h4c0.55228,0 1,0.44772 1,1v10c0,0.55228 -0.44772,1 -1,1zM4,12c-0.55228,0 -1,0.44772 -1,1v6c0,0.55228 0.44772,1 1,1h3v-8z"></path><rect x="5.90146" y="23.52695" transform="rotate(-45)" width="2" height="12"></rect><rect x="0.90146" y="28.52695" transform="rotate(-45)" width="12" height="2"></rect></g></g></g></svg>