<svg version="1.1" xmlns="http://www.w3.org/2000/svg" xmlns:xlink="http://www.w3.org/1999/xlink" width="32px" height="32px" viewBox="0,0,256,256"><g fill="#ffffff" fill-rule="nonzero" stroke="none" stroke-width="1" stroke-linecap="butt" stroke-linejoin="miter" stroke-miterlimit="10" stroke-dasharray="" stroke-dashoffset="0" font-family="none" font-weight="none" font-size="none" text-anchor="none" style="mix-blend-mode: normal"><g transform="translate(0.0191,-0.03284) scale(8,8)"><g id="Layer_34"><path d="M18,29c-0.20391,-0.00048 -0.4028,-0.06329 -0.57,-0.18l-10,-7c-0.26886,-0.18652 -0.42946,-0.49278 -0.43,-0.82v-10c0.00054,-0.32722 0.16114,-0.63348 0.43,-0.82l10,-7c0.29673,-0.20079 0.67819,-0.22749 1,-0.07c0.34406,0.16383 0.5651,0.50896 0.57,0.89v24c0.00078,0.37436 -0.2076,0.7178 -0.54,0.89c-0.14233,0.07292 -0.30008,0.11064 -0.46,0.11zM9,20.48l8,5.6v-20.16l-8,5.6z"></path><path d="M8,22h-4c-1.65685,0 -3,-1.34315 -3,-3v-6c0,-1.65685 1.34315,-3 3,-3h4c0.55228,0 1,0.44772 1,1v10c0,0.55228 -0.44772,1 -1,1zM4,12c-0.55228,0 -1,0.44772 -1,1v6c0,0.55228 0.44772,1 1,1h3v-8z"></path><path d="M18,21v-2c1.21257,-0.00107 2.30526,-0.73198 2.76915,-1.85231c0.46388,-1.12033 0.20773,-2.40975 -0.64915,-3.26769l1.42,-1.42c1.43377,1.43014 1.8633,3.58389 1.08784,5.45463c-0.77546,1.87074 -2.60275,3.08899 -4.62784,3.08537z"></path><path d="M26.48,25.48c-0.2658,0.00154 -0.52128,-0.10281 -0.71,-0.29c-0.18931,-0.18777 -0.2958,-0.44336 -0.2958,-0.71c0,-0.26664 0.10649,-0.52223 0.2958,-0.71c4.28488,-4.29389 4.28488,-11.24611 0,-15.54c-0.39212,-0.39212 -0.39212,-1.02788 0,-1.42c0.39212,-0.39212 1.02788,-0.39212 1.42,0c5.07363,5.07627 5.07363,13.30373 0,18.38c-0.18872,0.18719 -0.4442,0.29154 -0.71,0.29z"></path><path d="M23.65,22.65c-0.26234,-0.0011 -0.51374,-0.10526 -0.7,-0.29c-0.34195,-0.39651 -0.32014,-0.98967 0.05,-1.36c1.31291,-1.31278 2.05051,-3.09336 2.05051,-4.95c0,-1.85664 -0.7376,-3.63722 -2.05051,-4.95c-0.33978,-0.39676 -0.31693,-0.98819 0.05244,-1.35756c0.36937,-0.36937 0.9608,-0.39221 1.35756,-0.05244c3.50944,3.51381 3.50944,9.20619 0,12.72c-0.20913,0.18186 -0.48435,0.26877 -0.76,0.24z"></path></g></g></g></svg>